<?xml version="1.0" ?>
<!-- Uploaded to: SVG Repo, www.svgrepo.com, Generator: SVG Repo Mixer Tools -->
<svg fill="#000000" width="800px" height="800px" viewBox="0 0 32 32" enable-background="new 0 0 32 32" id="Layer_3" version="1.1" xml:space="preserve" xmlns="http://www.w3.org/2000/svg" xmlns:xlink="http://www.w3.org/1999/xlink">
<g>
<path d="M29,2H3C2.448,2,2,2.447,2,3v4c0,0.553,0.448,1,1,1h1v14c0,0.553,0.448,1,1,1h10v1.184c-1.161,0.414-2,1.514-2,2.816   c0,1.654,1.346,3,3,3s3-1.346,3-3c0-1.302-0.839-2.402-2-2.816V23h10c0.552,0,1-0.447,1-1V8h1c0.552,0,1-0.447,1-1V3   C30,2.447,29.552,2,29,2z M16,28c-0.551,0-1-0.448-1-1s0.449-1,1-1s1,0.448,1,1S16.551,28,16,28z M26,21H6V8h20V21z M28,6h-1H5H4V4   h24V6z"/>
<path d="M10.621,18.392c-0.336,0.438-0.253,1.065,0.185,1.401C10.987,19.933,11.201,20,11.414,20c0.3,0,0.597-0.135,0.794-0.392   c0.596-0.776,1.006-1.607,1.402-2.41c0.95-1.925,1.578-3.206,4.129-3.026c1.714,0.114,3.081-0.038,4.1-0.24l-0.402,1.166   c-0.18,0.521,0.097,1.091,0.619,1.271c0.108,0.037,0.218,0.055,0.326,0.055c0.415,0,0.802-0.26,0.945-0.674l1.032-2.989   c0.04-0.116,0.052-0.236,0.049-0.354c-0.001-0.023-0.007-0.045-0.009-0.068c-0.01-0.102-0.035-0.198-0.075-0.292   c-0.006-0.014-0.004-0.029-0.011-0.043c-0.007-0.014-0.019-0.022-0.027-0.035c-0.046-0.087-0.106-0.164-0.177-0.236   c-0.019-0.019-0.034-0.041-0.055-0.058c-0.012-0.01-0.019-0.024-0.032-0.034l-3.174-2.435c-0.437-0.337-1.065-0.253-1.402,0.185   c-0.336,0.438-0.253,1.065,0.185,1.401l1.59,1.22c-0.843,0.149-1.959,0.255-3.35,0.163c-3.882-0.249-5.039,2.077-6.056,4.137   C11.463,17.029,11.097,17.771,10.621,18.392z"/>
<path d="M8.293,13.707C8.488,13.902,8.744,14,9,14s0.512-0.098,0.707-0.293L10.414,13l0.707,0.707   C11.317,13.902,11.573,14,11.829,14s0.512-0.098,0.707-0.293c0.391-0.391,0.391-1.023,0-1.414l-0.707-0.707l0.707-0.707   c0.391-0.391,0.391-1.023,0-1.414s-1.023-0.391-1.414,0l-0.707,0.707L9.707,9.465c-0.391-0.391-1.023-0.391-1.414,0   s-0.391,1.023,0,1.414L9,11.586l-0.707,0.707C7.902,12.684,7.902,13.316,8.293,13.707z"/>
<path d="M20.95,16.293c-0.391-0.391-1.023-0.391-1.414,0L18.828,17l-0.707-0.707c-0.391-0.391-1.023-0.391-1.414,0   s-0.391,1.023,0,1.414l0.707,0.707l-0.707,0.707c-0.391,0.391-0.391,1.023,0,1.414c0.195,0.195,0.451,0.293,0.707,0.293   s0.512-0.098,0.707-0.293l0.707-0.707l0.707,0.707c0.195,0.195,0.451,0.293,0.707,0.293s0.512-0.098,0.707-0.293   c0.391-0.391,0.391-1.023,0-1.414l-0.707-0.707l0.707-0.707C21.34,17.316,21.34,16.684,20.95,16.293z"/>
</g>
</svg>